{"title":"Bringing Out the Dead (1999) 720p MP4","uid":8299351,"size":898464130,"categoryP":"video","categoryS":"hd___movies","magnet":"?xt=urn:btih:e7a2f1e652e5e16ebaa7ac04ec07dfc2c7888c0a&amp;dn=Bringing+Out+the+Dead+%281999%29+720p+MP4&amp;tr=udp%3A%2F%2Ftracker.openbittorrent.com%3A80&amp;tr=udp%3A%2F%2Fopen.demonii.com%3A1337&amp;tr=udp%3A%2F%2Ftracker.coppersurfer.tk%3A6969&amp;tr=udp%3A%2F%2Fexodus.desync.com%3A6969","seeders":0,"leechers":1,"uploader":"Bulbouswhore","files":-1,"time":1364230045,"description":"A Manhattan ambulance paramedic, overworked and haunted by visions of his failures, fights to keep a tenuous grip on his clarity.\n\n\n\n\n\nI don't ask for a comment saying &quot;Thanks!&quot;, all I ask is that you seed to help others enjoy the film!\n\n\n\n\n\nSCREENSHOTS: &lt;a href=&quot;\nhttp://image.bayimg.com/fd04bb2e99e3bb3338f1f9284afdfe7f9ef99ee0.jpg&quot; rel=&quot;nofollow&quot; target=&quot;_NEW&quot;&gt;\nhttp://image.bayimg.com/fd04bb2e99e3bb3338f1f9284afdfe7f9ef99ee0.jpg&lt;/a&gt; &lt;a href=&quot;\nhttp://image.bayimg.com/39dd1c968b3162e1bdbcbd5e54302159621299b9.jpg&quot; rel=&quot;nofollow&quot; target=&quot;_NEW&quot;&gt;\nhttp://image.bayimg.com/39dd1c968b3162e1bdbcbd5e54302159621299b9.jpg&lt;/a&gt; &lt;a href=&quot;\nhttp://image.bayimg.com/2bfde5a2ffc266442db818139b553cab1ce234e8.jpg&quot; rel=&quot;nofollow&quot; target=&quot;_NEW&quot;&gt;\nhttp://image.bayimg.com/2bfde5a2ffc266442db818139b553cab1ce234e8.jpg&lt;/a&gt; &lt;a href=&quot;\nhttp://image.bayimg.com/f5d73919d0742a25cc4093c7b61e263ca22fad09.jpg&quot; rel=&quot;nofollow&quot; target=&quot;_NEW&quot;&gt;\nhttp://image.bayimg.com/f5d73919d0742a25cc4093c7b61e263ca22fad09.jpg&lt;/a&gt; &lt;a href=&quot;\nhttp://image.bayimg.com/d719a37f5163d631feb22e8ca9171c080e635468.jpg&quot; rel=&quot;nofollow&quot; target=&quot;_NEW&quot;&gt;\nhttp://image.bayimg.com/d719a37f5163d631feb22e8ca9171c080e635468.jpg&lt;/a&gt; &lt;a href=&quot;\nhttp://image.bayimg.com/54715ea64380f54f83023c8e775c6b9e9dc82974.jpg&quot; rel=&quot;nofollow&quot; target=&quot;_NEW&quot;&gt;\nhttp://image.bayimg.com/54715ea64380f54f83023c8e775c6b9e9dc82974.jpg&lt;/a&gt; &lt;a href=&quot;\nhttp://image.bayimg.com/ff5b33c50af970311990d9cf712b6c67bb21fb78.jpg&quot; rel=&quot;nofollow&quot; target=&quot;_NEW&quot;&gt;\nhttp://image.bayimg.com/ff5b33c50af970311990d9cf712b6c67bb21fb78.jpg&lt;/a&gt; &lt;a href=&quot;\nhttp://image.bayimg.com/a45bf23a9cbec42fa757be785a28ef64c30b18fe.jpg&quot; rel=&quot;nofollow&quot; target=&quot;_NEW&quot;&gt;\nhttp://image.bayimg.com/a45bf23a9cbec42fa757be785a28ef64c30b18fe.jpg&lt;/a&gt;\n\n\n\n\n\nGeneral\nFormat                         : MPEG-4\nFormat profile                 : Base Media / Version 2\nCodec ID                       : mp42\nFile size                      : 857 MiB\nDuration                       : 2h 1mn\nOverall bit rate mode          : Variable\nOverall bit rate               : 990 Kbps\n\nVideo\nID                             : 1\nFormat                         : AVC\nFormat/Info                    : Advanced Video Codec\nFormat profile                 : &lt;a class=&quot;__cf_email__&quot; href=&quot;/cdn-cgi/l/email-protection&quot; data-cfemail=&quot;c58daca2ad8589f6ebf4&quot;&gt;[email&amp;#160;protected]&lt;/a&gt;&lt;script cf-hash='f9e31' type=&quot;text/javascript&quot;&gt;\n/* &lt;![CDATA[ */!function(){try{var t=&quot;currentScript&quot;in document?document.currentScript:function(){for(var t=document.getElementsByTagName(&quot;script&quot;),e=t.length;e--;)if(t[e].getAttribute(&quot;cf-hash&quot;))return t[e]}();if(t&amp;&amp;t.previousSibling){var e,r,n,i,c=t.previousSibling,a=c.getAttribute(&quot;data-cfemail&quot;);if(a){for(e=&quot;&quot;,r=parseInt(a.substr(0,2),16),n=2;a.length-n;n+=2)i=parseInt(a.substr(n,2),16)^r,e+=String.fromCharCode(i);e=document.createTextNode(e),c.parentNode.replaceChild(e,c)}}}catch(u){}}();/* ]]&gt; */&lt;/script&gt;\nFormat settings, CABAC         : Yes\nFormat settings, ReFrames      : 6 frames\nCodec ID                       : avc1\nCodec ID/Info                  : Advanced Video Coding\nDuration                       : 2h 1mn\nBit rate mode                  : Variable\nBit rate                       : 825 Kbps\nWidth                          : 1 280 pixels\nHeight                         : 544 pixels\nDisplay aspect ratio           : 2.35:1\nFrame rate mode                : Variable\nFrame rate                     : 23.976 fps\nMinimum frame rate             : 23.810 fps\nMaximum frame rate             : 24.390 fps\nColor space                    : YUV\nChroma subsampling             : 4:2:0\nBit depth                      : 8 bits\nScan type                      : Progressive\nBits/(Pixel*Frame)             : 0.049\nStream size                    : 714 MiB (83%)\nWriting library                : x264 core 120\n\nAudio\nID                             : 2\nFormat                         : AAC\nFormat/Info                    : Advanced Audio Codec\nFormat profile                 : LC\nCodec ID                       : 40\nDuration                       : 2h 1mn\nBit rate mode                  : Variable\nBit rate                       : 160 Kbps\nMaximum bit rate               : 190 Kbps\nChannel(s)                     : 2 channels\nChannel positions              : Front: L R\nSampling rate                  : 48.0 KHz\nCompression mode               : Lossy\nStream size                    : 138 MiB (16%)\nLanguage                       : English\n\n\n\n\n\nPlease seed to keep this alive! Enjoy the film!","torrent":{"xt":"urn:btih:e7a2f1e652e5e16ebaa7ac04ec07dfc2c7888c0a","amp;dn":"Bringing+Out+the+Dead+%281999%29+720p+MP4","amp;tr":["udp%3A%2F%2Ftracker.openbittorrent.com%3A80","udp%3A%2F%2Fopen.demonii.com%3A1337","udp%3A%2F%2Ftracker.coppersurfer.tk%3A6969","udp%3A%2F%2Fexodus.desync.com%3A6969"],"infoHash":"e7a2f1e652e5e16ebaa7ac04ec07dfc2c7888c0a","infoHashBuffer":{"type":"Buffer","data":[231,162,241,230,82,229,225,110,186,167,172,4,236,7,223,194,199,136,140,10]},"announce":[],"urlList":[]}}